<svg xmlns="http://www.w3.org/2000/svg" xmlns:xlink="http://www.w3.org/1999/xlink" viewBox="0 0 100 100"><defs><style>.cls-1{isolation:isolate;}.cls-2,.cls-3,.cls-4{mix-blend-mode:multiply;}.cls-2{fill:url(#radial-gradient);}.cls-3{fill:url(#radial-gradient-2);}.cls-4{fill:url(#radial-gradient-3);}.cls-5{fill:#fff;}</style><radialGradient id="radial-gradient" cx="90.33" cy="2" r="72.6" gradientUnits="userSpaceOnUse"><stop offset="0" stop-color="#f0f"/><stop offset="0.15" stop-color="#f208d2"/><stop offset="0.37" stop-color="#e11398"/><stop offset="0.57" stop-color="#d31c6a"/><stop offset="0.75" stop-color="#c92249"/><stop offset="0.9" stop-color="#c32634"/><stop offset="1" stop-color="#c1272d"/></radialGradient><radialGradient id="radial-gradient-2" cx="26" cy="-0.33" r="90.31" gradientUnits="userSpaceOnUse"><stop offset="0" stop-color="#1b1464"/><stop offset="0.04" stop-color="#2a136e"/><stop offset="0.18" stop-color="#620e94"/><stop offset="0.33" stop-color="#920ab5"/><stop offset="0.47" stop-color="#b906cf"/><stop offset="0.61" stop-color="#d803e4"/><stop offset="0.75" stop-color="#ed02f3"/><stop offset="0.88" stop-color="#fb00fc"/><stop offset="1" stop-color="#f0f"/></radialGradient><radialGradient id="radial-gradient-3" cx="15.5" cy="98" r="87.66" gradientUnits="userSpaceOnUse"><stop offset="0" stop-color="#fbae17"/><stop offset="0.17" stop-color="#f2981b"/><stop offset="0.52" stop-color="#d96024"/><stop offset="0.85" stop-color="#c1272d"/></radialGradient></defs><title>insta</title><g class="cls-1"><g id="Layer_2" data-name="Layer 2"><g id="insta"><path class="cls-2" d="M74,0H50.29L22.47,53.82a12.31,12.31,0,0,0,5.29,16.59L82.34,98.63A26,26,0,0,0,100,74V26A26,26,0,0,0,74,0Z"/><path class="cls-3" d="M74,0H26A26,26,0,0,0,0,26V74.11l56.94,9.33A12.32,12.32,0,0,0,71.09,73.28L82.84,1.54A26.15,26.15,0,0,0,74,0Z"/><path class="cls-4" d="M81,35.74A12.32,12.32,0,0,0,66.74,25.66L0,37V74a26,26,0,0,0,26,26H74a25.88,25.88,0,0,0,16.82-6.18Z"/><path class="cls-5" d="M75.44,12.24H24.56A12.33,12.33,0,0,0,12.24,24.56V75.44A12.33,12.33,0,0,0,24.56,87.76H75.44A12.33,12.33,0,0,0,87.76,75.44V24.56A12.33,12.33,0,0,0,75.44,12.24Zm7.32,63.2a7.32,7.32,0,0,1-7.32,7.32H24.56a7.32,7.32,0,0,1-7.32-7.32V24.56a7.32,7.32,0,0,1,7.32-7.32H75.44a7.32,7.32,0,0,1,7.32,7.32Z"/><path class="cls-5" d="M50,31.1A18.9,18.9,0,1,0,68.9,50,18.9,18.9,0,0,0,50,31.1Zm0,32.8A13.9,13.9,0,1,1,63.9,50,13.92,13.92,0,0,1,50,63.9Z"/><circle class="cls-5" cx="71.9" cy="28.1" r="3"/></g></g></g></svg>